<svg xmlns="http://www.w3.org/2000/svg" xmlns:xlink="http://www.w3.org/1999/xlink" width="500" zoomAndPan="magnify" viewBox="0 0 375 374.999991" height="500" preserveAspectRatio="xMidYMid meet" version="1.0"><defs><g><g id="id1"/></g></defs><rect x="-37.5" width="450" fill="rgb(100%, 100%, 100%)" y="-37.499999" height="449.999989" fill-opacity="1"/><rect x="-37.5" width="450" fill="rgb(100%, 100%, 100%)" y="-37.499999" height="449.999989" fill-opacity="1"/><rect x="-37.5" width="450" fill="rgb(100%, 100%, 100%)" y="-37.499999" height="449.999989" fill-opacity="1"/><path fill="rgb(25.099182%, 4.708862%, 33.729553%)" d="M 290.773438 107.441406 L 226.652344 107.441406 C 222.582031 107.441406 219.328125 110.695312 219.328125 114.765625 L 219.328125 250.902344 C 219.328125 254.972656 222.582031 258.226562 226.652344 258.226562 L 290.773438 258.226562 C 294.84375 258.226562 298.097656 254.972656 298.097656 250.902344 L 298.097656 114.765625 C 298.097656 110.777344 294.84375 107.441406 290.773438 107.441406 Z M 294.597656 248.464844 C 294.597656 250.824219 292.644531 252.777344 290.285156 252.777344 L 227.058594 252.777344 C 224.699219 252.777344 222.746094 250.824219 222.746094 248.464844 L 222.746094 117.285156 C 222.746094 114.925781 224.699219 112.972656 227.058594 112.972656 L 241.054688 112.972656 L 241.054688 113.054688 C 241.054688 115.007812 242.679688 116.636719 244.632812 116.636719 L 272.789062 116.636719 C 274.742188 116.636719 276.371094 115.007812 276.371094 113.054688 L 276.371094 112.972656 L 290.367188 112.972656 C 292.726562 112.972656 294.679688 114.925781 294.679688 117.285156 L 294.679688 248.464844 Z M 294.597656 248.464844 " fill-opacity="1" fill-rule="nonzero"/><path fill="rgb(100%, 100%, 100%)" d="M 294.597656 117.285156 L 294.597656 248.464844 C 294.597656 250.824219 292.644531 252.777344 290.285156 252.777344 L 227.058594 252.777344 C 224.699219 252.777344 222.746094 250.824219 222.746094 248.464844 L 222.746094 117.285156 C 222.746094 114.925781 224.699219 112.972656 227.058594 112.972656 L 241.054688 112.972656 L 241.054688 113.054688 C 241.054688 115.007812 242.679688 116.636719 244.632812 116.636719 L 272.789062 116.636719 C 274.742188 116.636719 276.371094 115.007812 276.371094 113.054688 L 276.371094 112.972656 L 290.367188 112.972656 C 292.726562 112.972656 294.597656 114.925781 294.597656 117.285156 Z M 294.597656 117.285156 " fill-opacity="1" fill-rule="nonzero"/><path fill="rgb(100%, 37.249756%, 49.409485%)" d="M 285.484375 150.976562 L 231.941406 150.976562 C 229.417969 150.976562 227.382812 148.941406 227.382812 146.417969 L 227.382812 126.074219 C 227.382812 123.550781 229.417969 121.519531 231.941406 121.519531 L 285.566406 121.519531 C 288.089844 121.519531 290.121094 123.550781 290.121094 126.074219 L 290.121094 146.417969 C 290.042969 148.941406 288.007812 150.976562 285.484375 150.976562 Z M 285.484375 150.976562 " fill-opacity="1" fill-rule="nonzero"/><path fill="rgb(100%, 67.059326%, 29.798889%)" d="M 286.785156 161.878906 L 230.636719 161.878906 C 228.847656 161.878906 227.382812 160.414062 227.382812 158.625 C 227.382812 156.835938 228.847656 155.371094 230.636719 155.371094 L 286.785156 155.371094 C 288.578125 155.371094 290.042969 156.835938 290.042969 158.625 C 290.042969 160.414062 288.578125 161.878906 286.785156 161.878906 Z M 286.785156 161.878906 " fill-opacity="1" fill-rule="nonzero"/><path fill="rgb(69.018555%, 0%, 72.549438%)" d="M 286.785156 161.878906 L 274.09375 161.878906 C 272.300781 161.878906 270.835938 160.414062 270.835938 158.625 C 270.835938 156.835938 272.300781 155.371094 274.09375 155.371094 L 286.785156 155.371094 C 288.578125 155.371094 290.042969 156.835938 290.042969 158.625 C 290.042969 160.414062 288.578125 161.878906 286.785156 161.878906 Z M 286.785156 161.878906 " fill-opacity="1" fill-rule="nonzero"/><path fill="rgb(100%, 37.249756%, 49.409485%)" d="M 285.730469 195.164062 L 265.546875 195.164062 C 263.1875 195.164062 261.234375 193.210938 261.234375 190.847656 L 261.234375 170.667969 C 261.234375 168.308594 263.1875 166.355469 265.546875 166.355469 L 285.730469 166.355469 C 288.089844 166.355469 290.042969 168.308594 290.042969 170.667969 L 290.042969 190.847656 C 290.042969 193.210938 288.171875 195.164062 285.730469 195.164062 Z M 285.730469 195.164062 " fill-opacity="1" fill-rule="nonzero"/><path fill="rgb(100%, 67.059326%, 29.798889%)" d="M 251.796875 195.164062 L 231.695312 195.164062 C 229.335938 195.164062 227.382812 193.210938 227.382812 190.847656 L 227.382812 170.667969 C 227.382812 168.308594 229.335938 166.355469 231.695312 166.355469 L 251.875 166.355469 C 254.238281 166.355469 256.191406 168.308594 256.191406 170.667969 L 256.191406 190.847656 C 256.109375 193.210938 254.15625 195.164062 251.796875 195.164062 Z M 251.796875 195.164062 " fill-opacity="1" fill-rule="nonzero"/><path fill="rgb(69.018555%, 0%, 72.549438%)" d="M 286.542969 228.445312 L 274.335938 228.445312 C 272.382812 228.445312 270.835938 226.898438 270.835938 224.945312 L 270.835938 203.21875 C 270.835938 201.265625 272.382812 199.71875 274.335938 199.71875 L 286.542969 199.71875 C 288.496094 199.71875 290.042969 201.265625 290.042969 203.21875 L 290.042969 224.945312 C 290.042969 226.816406 288.496094 228.445312 286.542969 228.445312 Z M 286.542969 228.445312 " fill-opacity="1" fill-rule="nonzero"/><path fill="rgb(100%, 37.249756%, 49.409485%)" d="M 260.664062 228.445312 L 232.347656 228.445312 C 229.578125 228.445312 227.382812 226.246094 227.382812 223.480469 L 227.382812 204.683594 C 227.382812 201.917969 229.578125 199.71875 232.347656 199.71875 L 260.746094 199.71875 C 263.511719 199.71875 265.710938 201.917969 265.710938 204.683594 L 265.710938 223.480469 C 265.628906 226.246094 263.433594 228.445312 260.664062 228.445312 Z M 260.664062 228.445312 " fill-opacity="1" fill-rule="nonzero"/><path fill="rgb(100%, 67.059326%, 29.798889%)" d="M 290.042969 237.234375 L 290.042969 252.777344 L 261.316406 252.777344 L 261.316406 237.234375 C 261.316406 234.875 263.269531 232.921875 265.628906 232.921875 L 285.808594 232.921875 C 288.171875 233 290.042969 234.875 290.042969 237.234375 Z M 290.042969 237.234375 " fill-opacity="1" fill-rule="nonzero"/><path fill="rgb(100%, 67.059326%, 29.798889%)" d="M 256.109375 237.234375 L 256.109375 252.777344 L 227.382812 252.777344 L 227.382812 237.234375 C 227.382812 234.875 229.335938 232.921875 231.695312 232.921875 L 251.875 232.921875 C 254.15625 233 256.109375 234.875 256.109375 237.234375 Z M 256.109375 237.234375 " fill-opacity="1" fill-rule="nonzero"/><path fill="rgb(69.018555%, 0%, 72.549438%)" d="M 251.46875 192.882812 C 247.644531 192.882812 243.820312 192.882812 239.914062 192.882812 C 239.425781 192.882812 239.183594 193.046875 239.101562 193.535156 C 238.207031 197.605469 237.3125 201.753906 236.414062 205.824219 C 234.625 213.960938 232.753906 222.179688 230.964844 230.316406 C 230.882812 230.722656 230.964844 230.886719 231.289062 231.128906 C 232.589844 231.78125 233.566406 232.839844 234.300781 234.140625 C 236.007812 237.234375 234.707031 241.628906 231.613281 243.335938 C 230.394531 244.070312 229.011719 244.3125 227.628906 244.3125 C 226.570312 244.3125 225.59375 244.3125 224.535156 244.3125 L 189.542969 244.3125 C 189.542969 244.3125 189.460938 244.3125 189.378906 244.3125 C 189.460938 244.3125 189.460938 244.3125 189.542969 244.230469 C 188.324219 244.230469 187.101562 244.230469 185.882812 244.230469 C 184.90625 244.230469 184.171875 243.742188 183.765625 242.847656 C 183.359375 241.953125 183.523438 241.058594 184.171875 240.324219 C 184.742188 239.675781 185.476562 239.511719 186.289062 239.511719 C 200.039062 239.511719 213.710938 239.511719 227.464844 239.511719 C 227.707031 239.511719 228.035156 239.511719 228.277344 239.511719 C 229.5 239.429688 230.394531 238.371094 230.394531 237.152344 C 230.394531 235.769531 229.335938 234.875 227.871094 234.875 C 219 234.875 210.132812 234.875 201.261719 234.875 L 186.289062 234.875 C 184.742188 234.875 183.929688 234.222656 183.523438 232.757812 C 183.359375 232.269531 183.195312 231.699219 183.035156 231.210938 C 180.835938 223.398438 178.558594 215.667969 176.359375 207.855469 C 175.628906 205.414062 174.976562 202.972656 174.246094 200.53125 C 173.839844 198.988281 174.894531 197.605469 176.523438 197.605469 C 176.769531 197.605469 177.011719 197.605469 177.257812 197.605469 L 233.242188 197.605469 C 233.324219 197.523438 233.324219 197.523438 233.324219 197.523438 C 233.894531 195.164062 234.382812 192.800781 234.949219 190.441406 C 235.277344 188.976562 236.089844 188.328125 237.554688 188.328125 C 239.425781 188.328125 241.214844 188.328125 243.089844 188.328125 C 245.855469 188.328125 248.539062 188.328125 251.308594 188.328125 C 252.445312 188.328125 253.261719 188.898438 253.585938 189.871094 C 254.316406 191.417969 253.179688 192.882812 251.46875 192.882812 Z M 251.46875 192.882812 " fill-opacity="1" fill-rule="nonzero"/><path fill="rgb(69.018555%, 0%, 72.549438%)" d="M 197.519531 251.390625 C 197.4375 255.136719 194.671875 257.984375 190.84375 258.308594 C 187.589844 258.554688 184.171875 255.949219 183.683594 252.695312 C 183.601562 251.960938 183.523438 251.148438 183.683594 250.414062 C 183.765625 249.683594 184.011719 248.953125 184.335938 248.300781 C 184.660156 247.648438 185.148438 247 185.636719 246.429688 C 186.125 245.941406 186.777344 245.453125 187.429688 245.125 C 187.996094 244.800781 188.730469 244.636719 189.378906 244.394531 C 189.460938 244.394531 189.542969 244.394531 189.542969 244.394531 L 191.660156 244.394531 C 194.996094 244.882812 197.679688 248.054688 197.519531 251.390625 Z M 197.519531 251.390625 " fill-opacity="1" fill-rule="nonzero"/><path fill="rgb(69.018555%, 0%, 72.549438%)" d="M 230.394531 251.636719 C 230.066406 255.460938 227.140625 258.226562 223.476562 258.226562 C 219.816406 258.226562 216.722656 255.460938 216.480469 251.71875 C 216.234375 248.382812 218.511719 244.964844 222.417969 244.230469 L 222.175781 244.230469 L 224.453125 244.230469 C 228.035156 245.046875 230.636719 248.21875 230.394531 251.636719 Z M 230.394531 251.636719 " fill-opacity="1" fill-rule="nonzero"/><g fill="rgb(90.979004%, 27.839661%, 39.99939%)" fill-opacity="1"><g transform="translate(107.871599, 143.029556)"><g><path d="M 23.953125 0 L 21.4375 -5.8125 L 9.015625 -5.8125 L 6.5 0 L -0.875 0 L 12.234375 -28.09375 L 18.0625 -28.09375 L 31.203125 0 Z M 11.359375 -11.3125 L 19.09375 -11.3125 L 15.21875 -20.328125 Z M 11.359375 -11.3125 "/></g></g></g><g fill="rgb(90.979004%, 27.839661%, 39.99939%)" fill-opacity="1"><g transform="translate(138.201194, 143.029556)"><g><path d="M 2.546875 -28.09375 L 16.140625 -28.09375 C 19.253906 -28.09375 21.671875 -27.300781 23.390625 -25.71875 C 25.117188 -24.144531 25.984375 -21.945312 25.984375 -19.125 C 25.984375 -16.34375 25.113281 -14.15625 23.375 -12.5625 C 21.632812 -10.96875 19.222656 -10.171875 16.140625 -10.171875 L 9.890625 -10.171875 L 9.890625 0 L 2.546875 0 Z M 15.140625 -15.671875 C 16.492188 -15.671875 17.492188 -15.945312 18.140625 -16.5 C 18.796875 -17.0625 19.125 -17.925781 19.125 -19.09375 C 19.125 -20.257812 18.796875 -21.128906 18.140625 -21.703125 C 17.492188 -22.273438 16.492188 -22.5625 15.140625 -22.5625 L 9.890625 -22.5625 L 9.890625 -15.671875 Z M 15.140625 -15.671875 "/></g></g></g><g fill="rgb(90.979004%, 27.839661%, 39.99939%)" fill-opacity="1"><g transform="translate(165.182978, 143.029556)"><g><path d="M 20.765625 -28.09375 L 27.625 -28.09375 L 27.625 0 L 22.203125 0 L 9.359375 -16.0625 L 9.359375 0 L 2.546875 0 L 2.546875 -28.09375 L 7.890625 -28.09375 L 20.765625 -12.03125 Z M 20.765625 -28.09375 "/></g></g></g><g fill="rgb(90.979004%, 27.839661%, 39.99939%)" fill-opacity="1"><g transform="translate(195.353156, 143.029556)"><g><path d="M 2.546875 0 L 2.546875 -28.09375 L 9.890625 -28.09375 L 9.890625 0 Z M 2.546875 0 "/></g></g></g><g fill="rgb(90.979004%, 27.839661%, 39.99939%)" fill-opacity="1"><g transform="translate(120.189483, 186.301965)"><g><path d="M 23.953125 0 L 21.4375 -5.8125 L 9.015625 -5.8125 L 6.5 0 L -0.875 0 L 12.234375 -28.09375 L 18.0625 -28.09375 L 31.203125 0 Z M 11.359375 -11.3125 L 19.09375 -11.3125 L 15.21875 -20.328125 Z M 11.359375 -11.3125 "/></g></g></g><g fill="rgb(90.979004%, 27.839661%, 39.99939%)" fill-opacity="1"><g transform="translate(150.519078, 186.301965)"><g><path d="M 2.546875 -28.09375 L 13.984375 -28.09375 C 17.097656 -28.09375 19.773438 -27.535156 22.015625 -26.421875 C 24.265625 -25.304688 25.988281 -23.691406 27.1875 -21.578125 C 28.382812 -19.472656 28.984375 -16.972656 28.984375 -14.078125 C 28.984375 -11.148438 28.390625 -8.628906 27.203125 -6.515625 C 26.023438 -4.398438 24.3125 -2.785156 22.0625 -1.671875 C 19.8125 -0.554688 17.117188 0 13.984375 0 L 2.546875 0 Z M 13.46875 -5.90625 C 16.238281 -5.90625 18.300781 -6.582031 19.65625 -7.9375 C 21.007812 -9.289062 21.6875 -11.335938 21.6875 -14.078125 C 21.6875 -16.804688 21.007812 -18.84375 19.65625 -20.1875 C 18.300781 -21.53125 16.238281 -22.203125 13.46875 -22.203125 L 9.890625 -22.203125 L 9.890625 -5.90625 Z M 13.46875 -5.90625 "/></g></g></g><g fill="rgb(90.979004%, 27.839661%, 39.99939%)" fill-opacity="1"><g transform="translate(181.326935, 186.301965)"><g><path d="M 12.71875 0.359375 C 10.613281 0.359375 8.535156 0.0820312 6.484375 -0.46875 C 4.441406 -1.03125 2.785156 -1.773438 1.515625 -2.703125 L 3.78125 -7.890625 C 5.132812 -7.035156 6.582031 -6.382812 8.125 -5.9375 C 9.664062 -5.488281 11.222656 -5.265625 12.796875 -5.265625 C 14.390625 -5.265625 15.601562 -5.484375 16.4375 -5.921875 C 17.28125 -6.359375 17.703125 -6.972656 17.703125 -7.765625 C 17.703125 -8.484375 17.320312 -9.066406 16.5625 -9.515625 C 15.800781 -9.972656 14.359375 -10.425781 12.234375 -10.875 C 9.609375 -11.4375 7.550781 -12.101562 6.0625 -12.875 C 4.570312 -13.644531 3.523438 -14.546875 2.921875 -15.578125 C 2.328125 -16.617188 2.03125 -17.894531 2.03125 -19.40625 C 2.03125 -21.132812 2.515625 -22.679688 3.484375 -24.046875 C 4.453125 -25.421875 5.820312 -26.5 7.59375 -27.28125 C 9.363281 -28.0625 11.390625 -28.453125 13.671875 -28.453125 C 15.691406 -28.453125 17.648438 -28.164062 19.546875 -27.59375 C 21.453125 -27.03125 22.9375 -26.296875 24 -25.390625 L 21.765625 -20.203125 C 19.210938 -21.960938 16.53125 -22.84375 13.71875 -22.84375 C 12.351562 -22.84375 11.257812 -22.582031 10.4375 -22.0625 C 9.613281 -21.539062 9.203125 -20.859375 9.203125 -20.015625 C 9.203125 -19.503906 9.347656 -19.085938 9.640625 -18.765625 C 9.929688 -18.453125 10.472656 -18.140625 11.265625 -17.828125 C 12.066406 -17.523438 13.253906 -17.21875 14.828125 -16.90625 C 17.378906 -16.34375 19.382812 -15.671875 20.84375 -14.890625 C 22.300781 -14.109375 23.335938 -13.195312 23.953125 -12.15625 C 24.566406 -11.125 24.875 -9.890625 24.875 -8.453125 C 24.875 -5.691406 23.8125 -3.53125 21.6875 -1.96875 C 19.5625 -0.414062 16.570312 0.359375 12.71875 0.359375 Z M 12.71875 0.359375 "/></g></g></g></svg>